%
M48
M72
T01C0.0276
T02C0.0315
T03C0.0354
T04C0.0394
T05C0.0400
T06C0.0709
%
T01
X18100Y11950
T02
X18600Y16100
X18600Y17100
X18600Y18100
X18600Y19100
X15600Y19100
X15600Y18100
X15600Y17100
X15600Y16100
T03
X16761Y14431
X16761Y13446
X17588Y13446
X18612Y13446
X19439Y13446
X19439Y14431
T04
X11600Y10557
X9435Y14100
X13765Y14100
T05
X9600Y16100
X9600Y17100
X9600Y18100
X11100Y19600
X12100Y19600
X13100Y19600
T06
X11600Y13509
M30
